<mxfile host="app.diagrams.net" agent="Mozilla/5.0 (X11; Ubuntu; Linux x86_64; rv:131.0) Gecko/20100101 Firefox/131.0" version="24.8.3">
  <diagram name="Page-1" id="uwgnwOzMXsqjj8kN0vaO">
    <mxGraphModel dx="2230" dy="757" grid="1" gridSize="10" guides="1" tooltips="1" connect="1" arrows="1" fold="1" page="1" pageScale="1" pageWidth="850" pageHeight="1100" math="0" shadow="0">
      <root>
        <mxCell id="0" />
        <mxCell id="1" parent="0" />
        <mxCell id="H0Nf2VBTTqdk4RKNYhD4-148" value="Subscription" style="rounded=0;whiteSpace=wrap;html=1;" parent="1" vertex="1">
          <mxGeometry x="-480" y="500" width="120" height="60" as="geometry" />
        </mxCell>
        <mxCell id="H0Nf2VBTTqdk4RKNYhD4-166" value="" style="rounded=0;whiteSpace=wrap;html=1;" parent="1" vertex="1">
          <mxGeometry x="480" y="500" width="120" height="60" as="geometry" />
        </mxCell>
        <mxCell id="H0Nf2VBTTqdk4RKNYhD4-7" value="" style="rounded=0;whiteSpace=wrap;html=1;" parent="1" vertex="1">
          <mxGeometry x="320" y="500" width="120" height="60" as="geometry" />
        </mxCell>
        <mxCell id="H0Nf2VBTTqdk4RKNYhD4-6" value="" style="rounded=0;whiteSpace=wrap;html=1;" parent="1" vertex="1">
          <mxGeometry x="160" y="500" width="120" height="60" as="geometry" />
        </mxCell>
        <mxCell id="H0Nf2VBTTqdk4RKNYhD4-1" value="" style="rounded=0;whiteSpace=wrap;html=1;" parent="1" vertex="1">
          <mxGeometry x="320" y="260" width="120" height="60" as="geometry" />
        </mxCell>
        <mxCell id="H0Nf2VBTTqdk4RKNYhD4-2" value="&lt;div&gt;Post&lt;/div&gt;" style="text;html=1;align=center;verticalAlign=middle;whiteSpace=wrap;rounded=0;" parent="1" vertex="1">
          <mxGeometry x="350" y="275" width="60" height="30" as="geometry" />
        </mxCell>
        <mxCell id="H0Nf2VBTTqdk4RKNYhD4-18" value="" style="ellipse;whiteSpace=wrap;html=1;rounded=0;" parent="1" vertex="1">
          <mxGeometry x="-370" y="200" width="60" height="40" as="geometry" />
        </mxCell>
        <mxCell id="H0Nf2VBTTqdk4RKNYhD4-19" value="" style="ellipse;whiteSpace=wrap;html=1;rounded=0;" parent="1" vertex="1">
          <mxGeometry x="470" y="200" width="60" height="40" as="geometry" />
        </mxCell>
        <mxCell id="H0Nf2VBTTqdk4RKNYhD4-20" value="" style="ellipse;whiteSpace=wrap;html=1;rounded=0;" parent="1" vertex="1">
          <mxGeometry x="230" y="200" width="60" height="40" as="geometry" />
        </mxCell>
        <mxCell id="H0Nf2VBTTqdk4RKNYhD4-21" value="" style="ellipse;whiteSpace=wrap;html=1;rounded=0;" parent="1" vertex="1">
          <mxGeometry x="390" y="200" width="60" height="40" as="geometry" />
        </mxCell>
        <mxCell id="H0Nf2VBTTqdk4RKNYhD4-22" value="" style="ellipse;whiteSpace=wrap;html=1;rounded=0;" parent="1" vertex="1">
          <mxGeometry x="310" y="200" width="60" height="40" as="geometry" />
        </mxCell>
        <mxCell id="H0Nf2VBTTqdk4RKNYhD4-24" value="&lt;div&gt;PostID&lt;/div&gt;" style="text;html=1;align=center;verticalAlign=middle;whiteSpace=wrap;rounded=0;strokeColor=none;fontStyle=4" parent="1" vertex="1">
          <mxGeometry x="230" y="205" width="60" height="30" as="geometry" />
        </mxCell>
        <mxCell id="H0Nf2VBTTqdk4RKNYhD4-25" value="UserID" style="text;html=1;align=center;verticalAlign=middle;whiteSpace=wrap;rounded=0;fontStyle=4" parent="1" vertex="1">
          <mxGeometry x="-370" y="205" width="60" height="30" as="geometry" />
        </mxCell>
        <mxCell id="H0Nf2VBTTqdk4RKNYhD4-26" value="Date" style="text;html=1;align=center;verticalAlign=middle;whiteSpace=wrap;rounded=0;" parent="1" vertex="1">
          <mxGeometry x="470" y="205" width="60" height="30" as="geometry" />
        </mxCell>
        <mxCell id="H0Nf2VBTTqdk4RKNYhD4-27" value="Title" style="text;html=1;align=center;verticalAlign=middle;whiteSpace=wrap;rounded=0;" parent="1" vertex="1">
          <mxGeometry x="310" y="205" width="60" height="30" as="geometry" />
        </mxCell>
        <mxCell id="H0Nf2VBTTqdk4RKNYhD4-28" value="Place" style="text;html=1;align=center;verticalAlign=middle;whiteSpace=wrap;rounded=0;" parent="1" vertex="1">
          <mxGeometry x="390" y="205" width="60" height="30" as="geometry" />
        </mxCell>
        <mxCell id="H0Nf2VBTTqdk4RKNYhD4-29" value="Duration" style="ellipse;whiteSpace=wrap;html=1;dashed=1;rounded=0;" parent="1" vertex="1">
          <mxGeometry x="-40" y="600" width="60" height="40" as="geometry" />
        </mxCell>
        <mxCell id="H0Nf2VBTTqdk4RKNYhD4-36" value="" style="rounded=0;whiteSpace=wrap;html=1;" parent="1" vertex="1">
          <mxGeometry x="640" y="260" width="120" height="60" as="geometry" />
        </mxCell>
        <mxCell id="H0Nf2VBTTqdk4RKNYhD4-37" value="Tag" style="text;html=1;align=center;verticalAlign=middle;whiteSpace=wrap;rounded=0;" parent="1" vertex="1">
          <mxGeometry x="670" y="275" width="60" height="30" as="geometry" />
        </mxCell>
        <mxCell id="H0Nf2VBTTqdk4RKNYhD4-40" value="" style="endArrow=none;html=1;rounded=0;entryX=0.5;entryY=1;entryDx=0;entryDy=0;exitX=0.5;exitY=0;exitDx=0;exitDy=0;" parent="1" source="nxssHxZagcmKNdGixCW7-12" target="H0Nf2VBTTqdk4RKNYhD4-1" edge="1">
          <mxGeometry width="50" height="50" relative="1" as="geometry">
            <mxPoint x="220" y="380" as="sourcePoint" />
            <mxPoint x="270" y="330" as="targetPoint" />
          </mxGeometry>
        </mxCell>
        <mxCell id="H0Nf2VBTTqdk4RKNYhD4-41" value="" style="endArrow=none;html=1;rounded=0;exitX=0.5;exitY=0;exitDx=0;exitDy=0;" parent="1" source="nxssHxZagcmKNdGixCW7-14" edge="1">
          <mxGeometry width="50" height="50" relative="1" as="geometry">
            <mxPoint x="380" y="380" as="sourcePoint" />
            <mxPoint x="379.29" y="320" as="targetPoint" />
          </mxGeometry>
        </mxCell>
        <mxCell id="H0Nf2VBTTqdk4RKNYhD4-42" value="" style="endArrow=none;html=1;rounded=0;exitX=0.5;exitY=0;exitDx=0;exitDy=0;" parent="1" source="nxssHxZagcmKNdGixCW7-16" edge="1">
          <mxGeometry width="50" height="50" relative="1" as="geometry">
            <mxPoint x="540" y="380" as="sourcePoint" />
            <mxPoint x="380" y="320" as="targetPoint" />
          </mxGeometry>
        </mxCell>
        <mxCell id="H0Nf2VBTTqdk4RKNYhD4-43" value="" style="endArrow=none;html=1;rounded=0;entryX=0.5;entryY=1;entryDx=0;entryDy=0;" parent="1" target="nxssHxZagcmKNdGixCW7-14" edge="1">
          <mxGeometry width="50" height="50" relative="1" as="geometry">
            <mxPoint x="379.29" y="500" as="sourcePoint" />
            <mxPoint x="380" y="440" as="targetPoint" />
          </mxGeometry>
        </mxCell>
        <mxCell id="H0Nf2VBTTqdk4RKNYhD4-46" value="" style="endArrow=none;html=1;rounded=0;entryX=0.5;entryY=1;entryDx=0;entryDy=0;" parent="1" target="nxssHxZagcmKNdGixCW7-16" edge="1">
          <mxGeometry width="50" height="50" relative="1" as="geometry">
            <mxPoint x="539.29" y="500" as="sourcePoint" />
            <mxPoint x="540" y="440" as="targetPoint" />
          </mxGeometry>
        </mxCell>
        <mxCell id="H0Nf2VBTTqdk4RKNYhD4-47" value="" style="endArrow=none;html=1;rounded=0;entryX=0.5;entryY=1;entryDx=0;entryDy=0;" parent="1" target="nxssHxZagcmKNdGixCW7-12" edge="1">
          <mxGeometry width="50" height="50" relative="1" as="geometry">
            <mxPoint x="219.29000000000002" y="500" as="sourcePoint" />
            <mxPoint x="220" y="440" as="targetPoint" />
          </mxGeometry>
        </mxCell>
        <mxCell id="H0Nf2VBTTqdk4RKNYhD4-49" value="" style="endArrow=none;html=1;rounded=0;entryX=0.5;entryY=0;entryDx=0;entryDy=0;exitX=0.5;exitY=1;exitDx=0;exitDy=0;" parent="1" source="H0Nf2VBTTqdk4RKNYhD4-20" target="H0Nf2VBTTqdk4RKNYhD4-1" edge="1">
          <mxGeometry width="50" height="50" relative="1" as="geometry">
            <mxPoint x="450" y="300" as="sourcePoint" />
            <mxPoint x="500" y="250" as="targetPoint" />
          </mxGeometry>
        </mxCell>
        <mxCell id="H0Nf2VBTTqdk4RKNYhD4-50" value="" style="endArrow=none;html=1;rounded=0;entryX=0.5;entryY=1;entryDx=0;entryDy=0;exitX=0.5;exitY=1;exitDx=0;exitDy=0;" parent="1" target="H0Nf2VBTTqdk4RKNYhD4-19" edge="1">
          <mxGeometry width="50" height="50" relative="1" as="geometry">
            <mxPoint x="380" y="260" as="sourcePoint" />
            <mxPoint x="500" y="280" as="targetPoint" />
          </mxGeometry>
        </mxCell>
        <mxCell id="H0Nf2VBTTqdk4RKNYhD4-51" value="" style="endArrow=none;html=1;rounded=0;exitX=0.5;exitY=1;exitDx=0;exitDy=0;" parent="1" source="H0Nf2VBTTqdk4RKNYhD4-22" edge="1">
          <mxGeometry width="50" height="50" relative="1" as="geometry">
            <mxPoint x="280" y="260" as="sourcePoint" />
            <mxPoint x="380" y="260" as="targetPoint" />
          </mxGeometry>
        </mxCell>
        <mxCell id="H0Nf2VBTTqdk4RKNYhD4-52" value="" style="endArrow=none;html=1;rounded=0;exitX=0.5;exitY=1;exitDx=0;exitDy=0;entryX=0.5;entryY=1;entryDx=0;entryDy=0;" parent="1" target="H0Nf2VBTTqdk4RKNYhD4-21" edge="1">
          <mxGeometry width="50" height="50" relative="1" as="geometry">
            <mxPoint x="380" y="260" as="sourcePoint" />
            <mxPoint x="420" y="280" as="targetPoint" />
          </mxGeometry>
        </mxCell>
        <mxCell id="H0Nf2VBTTqdk4RKNYhD4-53" value="URL" style="ellipse;whiteSpace=wrap;html=1;rounded=0;" parent="1" vertex="1">
          <mxGeometry x="150" y="580" width="60" height="40" as="geometry" />
        </mxCell>
        <mxCell id="H0Nf2VBTTqdk4RKNYhD4-55" value="Filter" style="ellipse;whiteSpace=wrap;html=1;rounded=0;" parent="1" vertex="1">
          <mxGeometry x="230" y="580" width="60" height="40" as="geometry" />
        </mxCell>
        <mxCell id="H0Nf2VBTTqdk4RKNYhD4-59" value="Contents" style="ellipse;whiteSpace=wrap;html=1;rounded=0;" parent="1" vertex="1">
          <mxGeometry x="350" y="580" width="60" height="40" as="geometry" />
        </mxCell>
        <mxCell id="H0Nf2VBTTqdk4RKNYhD4-61" value="URL" style="ellipse;whiteSpace=wrap;html=1;rounded=0;" parent="1" vertex="1">
          <mxGeometry x="470" y="580" width="60" height="40" as="geometry" />
        </mxCell>
        <mxCell id="H0Nf2VBTTqdk4RKNYhD4-63" value="Codec" style="ellipse;whiteSpace=wrap;html=1;rounded=0;" parent="1" vertex="1">
          <mxGeometry x="550" y="580" width="60" height="40" as="geometry" />
        </mxCell>
        <mxCell id="H0Nf2VBTTqdk4RKNYhD4-65" value="" style="endArrow=none;html=1;rounded=0;exitX=0.5;exitY=1;exitDx=0;exitDy=0;" parent="1" edge="1">
          <mxGeometry width="50" height="50" relative="1" as="geometry">
            <mxPoint x="220" y="560" as="sourcePoint" />
            <mxPoint x="260" y="580" as="targetPoint" />
          </mxGeometry>
        </mxCell>
        <mxCell id="H0Nf2VBTTqdk4RKNYhD4-66" value="" style="endArrow=none;html=1;rounded=0;exitX=0.5;exitY=1;exitDx=0;exitDy=0;" parent="1" edge="1">
          <mxGeometry width="50" height="50" relative="1" as="geometry">
            <mxPoint x="540" y="560" as="sourcePoint" />
            <mxPoint x="580" y="580" as="targetPoint" />
          </mxGeometry>
        </mxCell>
        <mxCell id="H0Nf2VBTTqdk4RKNYhD4-67" value="" style="endArrow=none;html=1;rounded=0;exitX=0.5;exitY=1;exitDx=0;exitDy=0;entryX=0.5;entryY=1;entryDx=0;entryDy=0;" parent="1" edge="1">
          <mxGeometry width="50" height="50" relative="1" as="geometry">
            <mxPoint x="180" y="580" as="sourcePoint" />
            <mxPoint x="220" y="560" as="targetPoint" />
          </mxGeometry>
        </mxCell>
        <mxCell id="H0Nf2VBTTqdk4RKNYhD4-68" value="" style="endArrow=none;html=1;rounded=0;exitX=0.5;exitY=1;exitDx=0;exitDy=0;entryX=0.5;entryY=1;entryDx=0;entryDy=0;" parent="1" edge="1">
          <mxGeometry width="50" height="50" relative="1" as="geometry">
            <mxPoint x="500" y="580" as="sourcePoint" />
            <mxPoint x="540" y="560" as="targetPoint" />
          </mxGeometry>
        </mxCell>
        <mxCell id="H0Nf2VBTTqdk4RKNYhD4-69" value="" style="endArrow=none;html=1;rounded=0;entryX=0.5;entryY=1;entryDx=0;entryDy=0;" parent="1" target="H0Nf2VBTTqdk4RKNYhD4-7" edge="1">
          <mxGeometry width="50" height="50" relative="1" as="geometry">
            <mxPoint x="380" y="580" as="sourcePoint" />
            <mxPoint x="389.29" y="330" as="targetPoint" />
          </mxGeometry>
        </mxCell>
        <mxCell id="H0Nf2VBTTqdk4RKNYhD4-70" value="" style="ellipse;whiteSpace=wrap;html=1;rounded=0;" parent="1" vertex="1">
          <mxGeometry x="30" y="380" width="60" height="40" as="geometry" />
        </mxCell>
        <mxCell id="H0Nf2VBTTqdk4RKNYhD4-71" value="Date" style="text;html=1;align=center;verticalAlign=middle;whiteSpace=wrap;rounded=0;strokeColor=none;fontStyle=0" parent="1" vertex="1">
          <mxGeometry x="30" y="385" width="60" height="30" as="geometry" />
        </mxCell>
        <mxCell id="H0Nf2VBTTqdk4RKNYhD4-72" value="" style="endArrow=none;html=1;rounded=0;entryX=0.5;entryY=1;entryDx=0;entryDy=0;" parent="1" edge="1">
          <mxGeometry width="50" height="50" relative="1" as="geometry">
            <mxPoint x="60" y="380" as="sourcePoint" />
            <mxPoint x="60" y="360" as="targetPoint" />
          </mxGeometry>
        </mxCell>
        <mxCell id="H0Nf2VBTTqdk4RKNYhD4-73" value="" style="ellipse;whiteSpace=wrap;html=1;rounded=0;" parent="1" vertex="1">
          <mxGeometry x="710" y="200" width="60" height="40" as="geometry" />
        </mxCell>
        <mxCell id="H0Nf2VBTTqdk4RKNYhD4-74" value="Name" style="text;html=1;align=center;verticalAlign=middle;whiteSpace=wrap;rounded=0;strokeColor=none;fontStyle=0" parent="1" vertex="1">
          <mxGeometry x="710" y="205" width="60" height="30" as="geometry" />
        </mxCell>
        <mxCell id="H0Nf2VBTTqdk4RKNYhD4-75" value="" style="endArrow=none;html=1;rounded=0;entryX=0.5;entryY=0;entryDx=0;entryDy=0;exitX=0.5;exitY=1;exitDx=0;exitDy=0;" parent="1" source="H0Nf2VBTTqdk4RKNYhD4-73" target="H0Nf2VBTTqdk4RKNYhD4-36" edge="1">
          <mxGeometry width="50" height="50" relative="1" as="geometry">
            <mxPoint x="740" y="240" as="sourcePoint" />
            <mxPoint x="710" y="250" as="targetPoint" />
          </mxGeometry>
        </mxCell>
        <mxCell id="H0Nf2VBTTqdk4RKNYhD4-77" value="" style="rhombus;whiteSpace=wrap;html=1;rounded=0;" parent="1" vertex="1">
          <mxGeometry x="480" y="260" width="120" height="60" as="geometry" />
        </mxCell>
        <mxCell id="H0Nf2VBTTqdk4RKNYhD4-78" value="Has" style="text;html=1;align=center;verticalAlign=middle;whiteSpace=wrap;rounded=0;" parent="1" vertex="1">
          <mxGeometry x="510" y="275" width="60" height="30" as="geometry" />
        </mxCell>
        <mxCell id="H0Nf2VBTTqdk4RKNYhD4-85" value="" style="endArrow=none;html=1;rounded=0;exitX=0;exitY=0.5;exitDx=0;exitDy=0;entryX=1;entryY=0.5;entryDx=0;entryDy=0;" parent="1" source="H0Nf2VBTTqdk4RKNYhD4-36" target="H0Nf2VBTTqdk4RKNYhD4-77" edge="1">
          <mxGeometry width="50" height="50" relative="1" as="geometry">
            <mxPoint x="550" y="340" as="sourcePoint" />
            <mxPoint x="610" y="300" as="targetPoint" />
          </mxGeometry>
        </mxCell>
        <mxCell id="H0Nf2VBTTqdk4RKNYhD4-89" value="" style="endArrow=none;html=1;rounded=0;exitX=1;exitY=0.5;exitDx=0;exitDy=0;entryX=0;entryY=0.5;entryDx=0;entryDy=0;" parent="1" source="H0Nf2VBTTqdk4RKNYhD4-1" target="H0Nf2VBTTqdk4RKNYhD4-77" edge="1">
          <mxGeometry width="50" height="50" relative="1" as="geometry">
            <mxPoint x="740" y="570" as="sourcePoint" />
            <mxPoint x="600" y="290" as="targetPoint" />
          </mxGeometry>
        </mxCell>
        <mxCell id="H0Nf2VBTTqdk4RKNYhD4-91" value="" style="rounded=0;whiteSpace=wrap;html=1;" parent="1" vertex="1">
          <mxGeometry x="-320" y="260" width="120" height="60" as="geometry" />
        </mxCell>
        <mxCell id="H0Nf2VBTTqdk4RKNYhD4-92" value="&lt;div&gt;User&lt;/div&gt;" style="text;html=1;align=center;verticalAlign=middle;whiteSpace=wrap;rounded=0;" parent="1" vertex="1">
          <mxGeometry x="-290" y="275" width="60" height="30" as="geometry" />
        </mxCell>
        <mxCell id="H0Nf2VBTTqdk4RKNYhD4-93" value="" style="rhombus;whiteSpace=wrap;html=1;rounded=0;" parent="1" vertex="1">
          <mxGeometry y="220" width="120" height="60" as="geometry" />
        </mxCell>
        <mxCell id="H0Nf2VBTTqdk4RKNYhD4-94" value="" style="ellipse;whiteSpace=wrap;html=1;rounded=0;" parent="1" vertex="1">
          <mxGeometry x="-290" y="200" width="60" height="40" as="geometry" />
        </mxCell>
        <mxCell id="H0Nf2VBTTqdk4RKNYhD4-95" value="FirstName" style="text;html=1;align=center;verticalAlign=middle;whiteSpace=wrap;rounded=0;" parent="1" vertex="1">
          <mxGeometry x="-290" y="205" width="60" height="30" as="geometry" />
        </mxCell>
        <mxCell id="H0Nf2VBTTqdk4RKNYhD4-96" value="" style="ellipse;whiteSpace=wrap;html=1;rounded=0;" parent="1" vertex="1">
          <mxGeometry x="-210" y="200" width="60" height="40" as="geometry" />
        </mxCell>
        <mxCell id="H0Nf2VBTTqdk4RKNYhD4-97" value="LastName" style="text;html=1;align=center;verticalAlign=middle;whiteSpace=wrap;rounded=0;" parent="1" vertex="1">
          <mxGeometry x="-210" y="205" width="60" height="30" as="geometry" />
        </mxCell>
        <mxCell id="H0Nf2VBTTqdk4RKNYhD4-98" value="" style="endArrow=none;html=1;rounded=0;entryX=0.5;entryY=1;entryDx=0;entryDy=0;" parent="1" edge="1">
          <mxGeometry width="50" height="50" relative="1" as="geometry">
            <mxPoint x="-260.24" y="260" as="sourcePoint" />
            <mxPoint x="-260.24" y="240" as="targetPoint" />
          </mxGeometry>
        </mxCell>
        <mxCell id="H0Nf2VBTTqdk4RKNYhD4-99" value="" style="endArrow=none;html=1;rounded=0;entryX=0.5;entryY=1;entryDx=0;entryDy=0;" parent="1" target="H0Nf2VBTTqdk4RKNYhD4-96" edge="1">
          <mxGeometry width="50" height="50" relative="1" as="geometry">
            <mxPoint x="-260" y="260" as="sourcePoint" />
            <mxPoint x="-250.24" y="250" as="targetPoint" />
          </mxGeometry>
        </mxCell>
        <mxCell id="H0Nf2VBTTqdk4RKNYhD4-100" value="" style="endArrow=none;html=1;rounded=0;entryX=0.5;entryY=0;entryDx=0;entryDy=0;" parent="1" target="H0Nf2VBTTqdk4RKNYhD4-91" edge="1">
          <mxGeometry width="50" height="50" relative="1" as="geometry">
            <mxPoint x="-340" y="240" as="sourcePoint" />
            <mxPoint x="-260" y="220" as="targetPoint" />
          </mxGeometry>
        </mxCell>
        <mxCell id="H0Nf2VBTTqdk4RKNYhD4-101" value="" style="rhombus;whiteSpace=wrap;html=1;rounded=0;" parent="1" vertex="1">
          <mxGeometry x="-480" y="260" width="120" height="60" as="geometry" />
        </mxCell>
        <mxCell id="H0Nf2VBTTqdk4RKNYhD4-104" value="FriendOf" style="text;html=1;align=center;verticalAlign=middle;whiteSpace=wrap;rounded=0;" parent="1" vertex="1">
          <mxGeometry x="-450" y="275" width="60" height="30" as="geometry" />
        </mxCell>
        <mxCell id="H0Nf2VBTTqdk4RKNYhD4-105" value="M" style="text;html=1;align=center;verticalAlign=middle;whiteSpace=wrap;rounded=0;" parent="1" vertex="1">
          <mxGeometry x="-380" y="305" width="60" height="30" as="geometry" />
        </mxCell>
        <mxCell id="H0Nf2VBTTqdk4RKNYhD4-106" value="&lt;div&gt;M&lt;/div&gt;" style="text;html=1;align=center;verticalAlign=middle;whiteSpace=wrap;rounded=0;" parent="1" vertex="1">
          <mxGeometry x="-380" y="245" width="60" height="30" as="geometry" />
        </mxCell>
        <mxCell id="H0Nf2VBTTqdk4RKNYhD4-108" value="" style="rounded=0;whiteSpace=wrap;html=1;" parent="1" vertex="1">
          <mxGeometry x="-160" y="500" width="120" height="60" as="geometry" />
        </mxCell>
        <mxCell id="H0Nf2VBTTqdk4RKNYhD4-109" value="Event" style="text;html=1;align=center;verticalAlign=middle;whiteSpace=wrap;rounded=0;" parent="1" vertex="1">
          <mxGeometry x="-130" y="515" width="60" height="30" as="geometry" />
        </mxCell>
        <mxCell id="H0Nf2VBTTqdk4RKNYhD4-110" value="StartDate" style="ellipse;whiteSpace=wrap;html=1;rounded=0;" parent="1" vertex="1">
          <mxGeometry x="-90" y="715" width="60" height="40" as="geometry" />
        </mxCell>
        <mxCell id="H0Nf2VBTTqdk4RKNYhD4-111" value="EventID" style="ellipse;whiteSpace=wrap;html=1;rounded=0;fontStyle=4" parent="1" vertex="1">
          <mxGeometry x="-210" y="600" width="60" height="40" as="geometry" />
        </mxCell>
        <mxCell id="H0Nf2VBTTqdk4RKNYhD4-112" value="Place" style="ellipse;whiteSpace=wrap;html=1;rounded=0;" parent="1" vertex="1">
          <mxGeometry x="-170" y="715" width="60" height="40" as="geometry" />
        </mxCell>
        <mxCell id="H0Nf2VBTTqdk4RKNYhD4-113" value="Title" style="ellipse;whiteSpace=wrap;html=1;rounded=0;" parent="1" vertex="1">
          <mxGeometry x="-200" y="655" width="60" height="40" as="geometry" />
        </mxCell>
        <mxCell id="H0Nf2VBTTqdk4RKNYhD4-118" value="EndDate" style="ellipse;whiteSpace=wrap;html=1;rounded=0;" parent="1" vertex="1">
          <mxGeometry x="-50" y="655" width="60" height="40" as="geometry" />
        </mxCell>
        <mxCell id="H0Nf2VBTTqdk4RKNYhD4-120" value="" style="endArrow=none;html=1;rounded=0;entryX=0.5;entryY=0;entryDx=0;entryDy=0;exitX=0.5;exitY=1;exitDx=0;exitDy=0;" parent="1" source="H0Nf2VBTTqdk4RKNYhD4-108" edge="1" target="H0Nf2VBTTqdk4RKNYhD4-118">
          <mxGeometry width="50" height="50" relative="1" as="geometry">
            <mxPoint x="-100" y="560" as="sourcePoint" />
            <mxPoint x="20" y="580" as="targetPoint" />
          </mxGeometry>
        </mxCell>
        <mxCell id="H0Nf2VBTTqdk4RKNYhD4-121" value="" style="endArrow=none;html=1;rounded=0;exitX=0.5;exitY=0;exitDx=0;exitDy=0;entryX=0.5;entryY=1;entryDx=0;entryDy=0;" parent="1" source="H0Nf2VBTTqdk4RKNYhD4-113" target="H0Nf2VBTTqdk4RKNYhD4-108" edge="1">
          <mxGeometry width="50" height="50" relative="1" as="geometry">
            <mxPoint x="-190" y="580" as="sourcePoint" />
            <mxPoint x="-100" y="560" as="targetPoint" />
          </mxGeometry>
        </mxCell>
        <mxCell id="H0Nf2VBTTqdk4RKNYhD4-122" value="" style="endArrow=none;html=1;rounded=0;exitX=0.5;exitY=1;exitDx=0;exitDy=0;entryX=0.5;entryY=0;entryDx=0;entryDy=0;" parent="1" source="H0Nf2VBTTqdk4RKNYhD4-108" target="H0Nf2VBTTqdk4RKNYhD4-110" edge="1">
          <mxGeometry width="50" height="50" relative="1" as="geometry">
            <mxPoint x="-100" y="560" as="sourcePoint" />
            <mxPoint x="-100" y="580" as="targetPoint" />
          </mxGeometry>
        </mxCell>
        <mxCell id="H0Nf2VBTTqdk4RKNYhD4-123" value="" style="endArrow=none;html=1;rounded=0;exitX=0.5;exitY=0;exitDx=0;exitDy=0;entryX=0.5;entryY=1;entryDx=0;entryDy=0;" parent="1" source="H0Nf2VBTTqdk4RKNYhD4-112" target="H0Nf2VBTTqdk4RKNYhD4-108" edge="1">
          <mxGeometry width="50" height="50" relative="1" as="geometry">
            <mxPoint x="-100" y="580" as="sourcePoint" />
            <mxPoint x="-100" y="560" as="targetPoint" />
          </mxGeometry>
        </mxCell>
        <mxCell id="H0Nf2VBTTqdk4RKNYhD4-124" value="" style="endArrow=none;html=1;rounded=0;entryX=0.5;entryY=1;entryDx=0;entryDy=0;exitX=0.5;exitY=0;exitDx=0;exitDy=0;" parent="1" source="H0Nf2VBTTqdk4RKNYhD4-111" target="H0Nf2VBTTqdk4RKNYhD4-108" edge="1">
          <mxGeometry width="50" height="50" relative="1" as="geometry">
            <mxPoint x="-260" y="590" as="sourcePoint" />
            <mxPoint x="-250" y="530" as="targetPoint" />
          </mxGeometry>
        </mxCell>
        <mxCell id="H0Nf2VBTTqdk4RKNYhD4-125" value="" style="endArrow=none;html=1;rounded=0;entryX=0.5;entryY=1;entryDx=0;entryDy=0;exitX=0.5;exitY=0;exitDx=0;exitDy=0;" parent="1" target="H0Nf2VBTTqdk4RKNYhD4-108" edge="1" source="H0Nf2VBTTqdk4RKNYhD4-29">
          <mxGeometry width="50" height="50" relative="1" as="geometry">
            <mxPoint x="100" y="580" as="sourcePoint" />
            <mxPoint x="150" y="530" as="targetPoint" />
          </mxGeometry>
        </mxCell>
        <mxCell id="H0Nf2VBTTqdk4RKNYhD4-144" value="" style="rhombus;whiteSpace=wrap;html=1;rounded=0;" parent="1" vertex="1">
          <mxGeometry y="300" width="120" height="60" as="geometry" />
        </mxCell>
        <mxCell id="H0Nf2VBTTqdk4RKNYhD4-128" value="" style="rhombus;whiteSpace=wrap;html=1;rounded=0;" parent="1" vertex="1">
          <mxGeometry x="-160" y="380" width="120" height="60" as="geometry" />
        </mxCell>
        <mxCell id="H0Nf2VBTTqdk4RKNYhD4-127" value="AttendeeOf" style="text;html=1;align=center;verticalAlign=middle;whiteSpace=wrap;rounded=0;" parent="1" vertex="1">
          <mxGeometry x="-130" y="395" width="60" height="30" as="geometry" />
        </mxCell>
        <mxCell id="H0Nf2VBTTqdk4RKNYhD4-129" value="" style="endArrow=none;html=1;rounded=0;entryX=0.5;entryY=1;entryDx=0;entryDy=0;exitX=0.5;exitY=0;exitDx=0;exitDy=0;" parent="1" source="H0Nf2VBTTqdk4RKNYhD4-128" target="H0Nf2VBTTqdk4RKNYhD4-91" edge="1">
          <mxGeometry width="50" height="50" relative="1" as="geometry">
            <mxPoint x="-140" y="530" as="sourcePoint" />
            <mxPoint x="-90" y="480" as="targetPoint" />
          </mxGeometry>
        </mxCell>
        <mxCell id="H0Nf2VBTTqdk4RKNYhD4-130" value="" style="endArrow=none;html=1;rounded=0;exitX=0.5;exitY=0;exitDx=0;exitDy=0;entryX=0.5;entryY=1;entryDx=0;entryDy=0;" parent="1" target="H0Nf2VBTTqdk4RKNYhD4-128" edge="1" source="H0Nf2VBTTqdk4RKNYhD4-108">
          <mxGeometry width="50" height="50" relative="1" as="geometry">
            <mxPoint x="-260.43" y="500" as="sourcePoint" />
            <mxPoint x="-200" y="460" as="targetPoint" />
          </mxGeometry>
        </mxCell>
        <mxCell id="H0Nf2VBTTqdk4RKNYhD4-131" value="" style="rhombus;whiteSpace=wrap;html=1;rounded=0;" parent="1" vertex="1">
          <mxGeometry x="-320" y="380" width="120" height="60" as="geometry" />
        </mxCell>
        <mxCell id="H0Nf2VBTTqdk4RKNYhD4-132" value="" style="endArrow=none;html=1;rounded=0;exitX=0.5;exitY=0;exitDx=0;exitDy=0;entryX=0.5;entryY=1;entryDx=0;entryDy=0;" parent="1" source="H0Nf2VBTTqdk4RKNYhD4-108" target="H0Nf2VBTTqdk4RKNYhD4-131" edge="1">
          <mxGeometry width="50" height="50" relative="1" as="geometry">
            <mxPoint x="-250.43" y="510" as="sourcePoint" />
            <mxPoint x="-170" y="450" as="targetPoint" />
          </mxGeometry>
        </mxCell>
        <mxCell id="H0Nf2VBTTqdk4RKNYhD4-133" value="" style="endArrow=none;html=1;rounded=0;exitX=0.5;exitY=0;exitDx=0;exitDy=0;entryX=0.5;entryY=1;entryDx=0;entryDy=0;" parent="1" edge="1" source="H0Nf2VBTTqdk4RKNYhD4-131">
          <mxGeometry width="50" height="50" relative="1" as="geometry">
            <mxPoint x="-340.21000000000004" y="380" as="sourcePoint" />
            <mxPoint x="-259.78" y="320" as="targetPoint" />
          </mxGeometry>
        </mxCell>
        <mxCell id="H0Nf2VBTTqdk4RKNYhD4-134" value="&lt;div&gt;OrganizerOf&lt;/div&gt;" style="text;html=1;align=center;verticalAlign=middle;whiteSpace=wrap;rounded=0;" parent="1" vertex="1">
          <mxGeometry x="-290" y="395" width="60" height="30" as="geometry" />
        </mxCell>
        <mxCell id="H0Nf2VBTTqdk4RKNYhD4-135" value="&lt;div&gt;PosterOf&lt;/div&gt;" style="text;html=1;align=center;verticalAlign=middle;whiteSpace=wrap;rounded=0;" parent="1" vertex="1">
          <mxGeometry x="30" y="235" width="60" height="30" as="geometry" />
        </mxCell>
        <mxCell id="H0Nf2VBTTqdk4RKNYhD4-137" value="" style="endArrow=none;html=1;rounded=0;exitX=1;exitY=0.5;exitDx=0;exitDy=0;entryX=0;entryY=0.5;entryDx=0;entryDy=0;" parent="1" source="H0Nf2VBTTqdk4RKNYhD4-93" edge="1">
          <mxGeometry width="50" height="50" relative="1" as="geometry">
            <mxPoint x="120" y="289.29" as="sourcePoint" />
            <mxPoint x="320" y="289.29" as="targetPoint" />
          </mxGeometry>
        </mxCell>
        <mxCell id="H0Nf2VBTTqdk4RKNYhD4-139" value="" style="endArrow=none;html=1;rounded=0;entryX=0;entryY=0.75;entryDx=0;entryDy=0;exitX=1;exitY=1;exitDx=0;exitDy=0;" parent="1" source="H0Nf2VBTTqdk4RKNYhD4-101" target="H0Nf2VBTTqdk4RKNYhD4-91" edge="1">
          <mxGeometry width="50" height="50" relative="1" as="geometry">
            <mxPoint x="-360" y="305" as="sourcePoint" />
            <mxPoint x="-310" y="255" as="targetPoint" />
          </mxGeometry>
        </mxCell>
        <mxCell id="H0Nf2VBTTqdk4RKNYhD4-142" value="" style="endArrow=none;html=1;rounded=0;entryX=0;entryY=0.25;entryDx=0;entryDy=0;exitX=1;exitY=0;exitDx=0;exitDy=0;" parent="1" source="H0Nf2VBTTqdk4RKNYhD4-101" target="H0Nf2VBTTqdk4RKNYhD4-91" edge="1">
          <mxGeometry width="50" height="50" relative="1" as="geometry">
            <mxPoint x="-360" y="275" as="sourcePoint" />
            <mxPoint x="-220" y="320" as="targetPoint" />
          </mxGeometry>
        </mxCell>
        <mxCell id="H0Nf2VBTTqdk4RKNYhD4-143" value="" style="endArrow=none;html=1;rounded=0;exitX=1;exitY=0.5;exitDx=0;exitDy=0;entryX=0;entryY=0.5;entryDx=0;entryDy=0;" parent="1" target="H0Nf2VBTTqdk4RKNYhD4-93" edge="1">
          <mxGeometry width="50" height="50" relative="1" as="geometry">
            <mxPoint x="-200" y="289.41" as="sourcePoint" />
            <mxPoint y="289.41" as="targetPoint" />
          </mxGeometry>
        </mxCell>
        <mxCell id="H0Nf2VBTTqdk4RKNYhD4-35" value="&lt;div&gt;Likes&lt;/div&gt;" style="text;html=1;align=center;verticalAlign=middle;whiteSpace=wrap;rounded=0;" parent="1" vertex="1">
          <mxGeometry x="30" y="315" width="60" height="30" as="geometry" />
        </mxCell>
        <mxCell id="H0Nf2VBTTqdk4RKNYhD4-145" value="" style="endArrow=none;html=1;rounded=0;exitX=1;exitY=0.5;exitDx=0;exitDy=0;entryX=0;entryY=0.5;entryDx=0;entryDy=0;" parent="1" edge="1">
          <mxGeometry width="50" height="50" relative="1" as="geometry">
            <mxPoint x="120" y="329.41" as="sourcePoint" />
            <mxPoint x="320" y="290" as="targetPoint" />
          </mxGeometry>
        </mxCell>
        <mxCell id="H0Nf2VBTTqdk4RKNYhD4-146" value="" style="endArrow=none;html=1;rounded=0;exitX=1;exitY=0.5;exitDx=0;exitDy=0;entryX=0;entryY=0.5;entryDx=0;entryDy=0;" parent="1" edge="1">
          <mxGeometry width="50" height="50" relative="1" as="geometry">
            <mxPoint x="-200" y="290" as="sourcePoint" />
            <mxPoint y="329.29" as="targetPoint" />
          </mxGeometry>
        </mxCell>
        <mxCell id="H0Nf2VBTTqdk4RKNYhD4-150" value="SubscriptionID" style="ellipse;whiteSpace=wrap;html=1;rounded=0;fontStyle=4" parent="1" vertex="1">
          <mxGeometry x="-580" y="600" width="100" height="60" as="geometry" />
        </mxCell>
        <mxCell id="H0Nf2VBTTqdk4RKNYhD4-152" value="PaymentMethod" style="ellipse;whiteSpace=wrap;html=1;rounded=0;" parent="1" vertex="1">
          <mxGeometry x="-520" y="700" width="95" height="60" as="geometry" />
        </mxCell>
        <mxCell id="H0Nf2VBTTqdk4RKNYhD4-154" value="PaymentDate" style="ellipse;whiteSpace=wrap;html=1;rounded=0;" parent="1" vertex="1">
          <mxGeometry x="-400" y="700" width="100" height="60" as="geometry" />
        </mxCell>
        <mxCell id="H0Nf2VBTTqdk4RKNYhD4-156" value="" style="endArrow=none;html=1;rounded=0;entryX=0.5;entryY=0;entryDx=0;entryDy=0;exitX=0.5;exitY=1;exitDx=0;exitDy=0;" parent="1" source="H0Nf2VBTTqdk4RKNYhD4-148" target="H0Nf2VBTTqdk4RKNYhD4-152" edge="1">
          <mxGeometry width="50" height="50" relative="1" as="geometry">
            <mxPoint x="-785.24" y="420" as="sourcePoint" />
            <mxPoint x="-785.24" y="400" as="targetPoint" />
          </mxGeometry>
        </mxCell>
        <mxCell id="H0Nf2VBTTqdk4RKNYhD4-157" value="" style="endArrow=none;html=1;rounded=0;exitX=0.5;exitY=1;exitDx=0;exitDy=0;entryX=0.5;entryY=0;entryDx=0;entryDy=0;" parent="1" source="H0Nf2VBTTqdk4RKNYhD4-148" target="H0Nf2VBTTqdk4RKNYhD4-154" edge="1">
          <mxGeometry width="50" height="50" relative="1" as="geometry">
            <mxPoint x="-750" y="400" as="sourcePoint" />
            <mxPoint x="-580" y="600" as="targetPoint" />
          </mxGeometry>
        </mxCell>
        <mxCell id="H0Nf2VBTTqdk4RKNYhD4-158" value="" style="endArrow=none;html=1;rounded=0;entryX=0.5;entryY=1;entryDx=0;entryDy=0;exitX=0.5;exitY=0;exitDx=0;exitDy=0;" parent="1" source="H0Nf2VBTTqdk4RKNYhD4-150" target="H0Nf2VBTTqdk4RKNYhD4-148" edge="1">
          <mxGeometry width="50" height="50" relative="1" as="geometry">
            <mxPoint x="-865" y="400" as="sourcePoint" />
            <mxPoint x="-785" y="420" as="targetPoint" />
          </mxGeometry>
        </mxCell>
        <mxCell id="H0Nf2VBTTqdk4RKNYhD4-181" value="" style="ellipse;whiteSpace=wrap;html=1;rounded=0;" parent="1" vertex="1">
          <mxGeometry x="630" y="200" width="60" height="40" as="geometry" />
        </mxCell>
        <mxCell id="H0Nf2VBTTqdk4RKNYhD4-182" value="TagID" style="text;html=1;align=center;verticalAlign=middle;whiteSpace=wrap;rounded=0;strokeColor=none;fontStyle=4" parent="1" vertex="1">
          <mxGeometry x="630" y="205" width="60" height="30" as="geometry" />
        </mxCell>
        <mxCell id="H0Nf2VBTTqdk4RKNYhD4-183" value="" style="endArrow=none;html=1;rounded=0;exitX=0.5;exitY=1;exitDx=0;exitDy=0;entryX=0.5;entryY=0;entryDx=0;entryDy=0;" parent="1" source="H0Nf2VBTTqdk4RKNYhD4-181" target="H0Nf2VBTTqdk4RKNYhD4-36" edge="1">
          <mxGeometry width="50" height="50" relative="1" as="geometry">
            <mxPoint x="660" y="240" as="sourcePoint" />
            <mxPoint x="630" y="260" as="targetPoint" />
          </mxGeometry>
        </mxCell>
        <mxCell id="nxssHxZagcmKNdGixCW7-2" value="ExpiryDate" style="ellipse;whiteSpace=wrap;html=1;dashed=1;rounded=0;" vertex="1" parent="1">
          <mxGeometry x="-360" y="600" width="100" height="60" as="geometry" />
        </mxCell>
        <mxCell id="nxssHxZagcmKNdGixCW7-5" value="Has" style="rhombus;whiteSpace=wrap;html=1;rounded=0;" vertex="1" parent="1">
          <mxGeometry x="-480" y="380" width="120" height="60" as="geometry" />
        </mxCell>
        <mxCell id="nxssHxZagcmKNdGixCW7-8" value="" style="endArrow=none;html=1;rounded=0;entryX=0.5;entryY=1;entryDx=0;entryDy=0;exitX=0.5;exitY=0;exitDx=0;exitDy=0;" edge="1" parent="1" source="nxssHxZagcmKNdGixCW7-5" target="H0Nf2VBTTqdk4RKNYhD4-91">
          <mxGeometry width="50" height="50" relative="1" as="geometry">
            <mxPoint x="-90" y="390" as="sourcePoint" />
            <mxPoint x="-250" y="330" as="targetPoint" />
          </mxGeometry>
        </mxCell>
        <mxCell id="nxssHxZagcmKNdGixCW7-9" value="" style="endArrow=none;html=1;rounded=0;entryX=0.5;entryY=1;entryDx=0;entryDy=0;exitX=0.5;exitY=0;exitDx=0;exitDy=0;" edge="1" parent="1" source="H0Nf2VBTTqdk4RKNYhD4-148" target="nxssHxZagcmKNdGixCW7-5">
          <mxGeometry width="50" height="50" relative="1" as="geometry">
            <mxPoint x="-80" y="400" as="sourcePoint" />
            <mxPoint x="-240" y="340" as="targetPoint" />
          </mxGeometry>
        </mxCell>
        <mxCell id="nxssHxZagcmKNdGixCW7-11" value="" style="endArrow=none;html=1;rounded=0;exitX=0.5;exitY=0;exitDx=0;exitDy=0;entryX=0.5;entryY=1;entryDx=0;entryDy=0;" edge="1" parent="1" source="nxssHxZagcmKNdGixCW7-2" target="H0Nf2VBTTqdk4RKNYhD4-148">
          <mxGeometry width="50" height="50" relative="1" as="geometry">
            <mxPoint x="-900" y="353" as="sourcePoint" />
            <mxPoint x="-570" y="570" as="targetPoint" />
          </mxGeometry>
        </mxCell>
        <mxCell id="nxssHxZagcmKNdGixCW7-12" value="" style="rhombus;whiteSpace=wrap;html=1;" vertex="1" parent="1">
          <mxGeometry x="160" y="380" width="120" height="60" as="geometry" />
        </mxCell>
        <mxCell id="nxssHxZagcmKNdGixCW7-14" value="" style="rhombus;whiteSpace=wrap;html=1;" vertex="1" parent="1">
          <mxGeometry x="320" y="380" width="120" height="60" as="geometry" />
        </mxCell>
        <mxCell id="nxssHxZagcmKNdGixCW7-15" value="Is" style="rhombus;whiteSpace=wrap;html=1;" vertex="1" parent="1">
          <mxGeometry x="331.25" y="385" width="97.5" height="50" as="geometry" />
        </mxCell>
        <mxCell id="nxssHxZagcmKNdGixCW7-16" value="" style="rhombus;whiteSpace=wrap;html=1;" vertex="1" parent="1">
          <mxGeometry x="480" y="380" width="120" height="60" as="geometry" />
        </mxCell>
        <mxCell id="nxssHxZagcmKNdGixCW7-18" value="ImagePost" style="rounded=0;whiteSpace=wrap;html=1;" vertex="1" parent="1">
          <mxGeometry x="165" y="505" width="110" height="50" as="geometry" />
        </mxCell>
        <mxCell id="nxssHxZagcmKNdGixCW7-19" value="Is" style="rhombus;whiteSpace=wrap;html=1;" vertex="1" parent="1">
          <mxGeometry x="171.25" y="385" width="97.5" height="50" as="geometry" />
        </mxCell>
        <mxCell id="nxssHxZagcmKNdGixCW7-20" value="Is" style="rhombus;whiteSpace=wrap;html=1;" vertex="1" parent="1">
          <mxGeometry x="491.25" y="385" width="97.5" height="50" as="geometry" />
        </mxCell>
        <mxCell id="nxssHxZagcmKNdGixCW7-21" value="TextPost" style="rounded=0;whiteSpace=wrap;html=1;" vertex="1" parent="1">
          <mxGeometry x="325" y="505" width="110" height="50" as="geometry" />
        </mxCell>
        <mxCell id="nxssHxZagcmKNdGixCW7-22" value="VideoPost" style="rounded=0;whiteSpace=wrap;html=1;" vertex="1" parent="1">
          <mxGeometry x="485" y="505" width="110" height="50" as="geometry" />
        </mxCell>
      </root>
    </mxGraphModel>
  </diagram>
</mxfile>
